<svg xmlns="http://www.w3.org/2000/svg" width="448.657" height="154" viewBox="0 25.022 448.657 154"><path fill="#2E8ACA" d="M17.264 134.452c-.714 0-1.314.151-1.799.454-.486.302-.875.724-1.168 1.264s-.499 1.182-.618 1.923a15.403 15.403 0 0 0-.178 2.432c-2.528 0-4.428-.284-5.701-.852s-1.909-1.539-1.909-2.912c0-1.026.306-1.905.92-2.638.613-.732 1.446-1.328 2.5-1.786 1.053-.457 2.28-.792 3.682-1.003a30.327 30.327 0 0 1 4.492-.315c1.979 0 3.705.169 5.179.508 1.474.339 2.702.884 3.682 1.635.979.751 1.717 1.735 2.211 2.953.495 1.219.742 2.707.742 4.465v14.342c0 .77.06 1.411.179 1.923.119.514.307.921.563 1.223.256.303.604.518 1.044.646.439.129.971.192 1.593.192h.22v2.995H22.43l-1.182-3.874h-.495a31.399 31.399 0 0 1-1.758 1.965 8.53 8.53 0 0 1-1.758 1.387 7.203 7.203 0 0 1-2.102.811c-.779.174-1.699.262-2.761.262-1.246 0-2.404-.184-3.476-.55a7.537 7.537 0 0 1-2.802-1.689c-.797-.76-1.425-1.713-1.882-2.857-.458-1.145-.687-2.495-.687-4.053 0-3.059 1.048-5.32 3.146-6.786 2.097-1.465 5.252-2.262 9.465-2.391l4.616-.164v-3.104c0-.935-.037-1.795-.11-2.583-.073-.787-.229-1.465-.467-2.033-.238-.567-.591-1.007-1.058-1.318-.467-.316-1.085-.472-1.855-.472zm-5 19.068c0 1.612.256 2.821.769 3.627s1.319 1.209 2.418 1.209c.806 0 1.534-.169 2.184-.509a4.93 4.93 0 0 0 1.676-1.442c.467-.622.824-1.378 1.072-2.267.247-.888.371-1.882.371-2.98v-4.231l-2.527.165c-1.118.055-2.061.233-2.83.536-.769.302-1.383.719-1.841 1.25-.458.531-.788 1.181-.989 1.95-.202.769-.303 1.666-.303 2.692zM45.678 162.449c-2.07 0-3.961-.266-5.674-.797-1.713-.531-3.183-1.41-4.41-2.638-1.227-1.227-2.18-2.83-2.857-4.808-.678-1.979-1.017-4.405-1.017-7.281 0-3.04.352-5.577 1.058-7.61.705-2.033 1.676-3.663 2.912-4.891a10.552 10.552 0 0 1 4.382-2.623c1.685-.522 3.498-.783 5.44-.783 1.813 0 3.416.15 4.808.453 1.392.302 2.555.719 3.489 1.25s1.644 1.158 2.129 1.882.729 1.497.729 2.321c0 .604-.106 1.195-.316 1.772s-.586 1.085-1.126 1.524c-.54.44-1.282.797-2.225 1.072-.944.274-2.148.412-3.613.412 0-.971-.06-1.896-.179-2.775s-.316-1.648-.591-2.308-.646-1.186-1.113-1.58c-.467-.394-1.058-.591-1.772-.591-.824 0-1.562.197-2.211.591-.65.395-1.209 1.067-1.676 2.02-.467.953-.824 2.226-1.071 3.819-.248 1.593-.371 3.59-.371 5.989 0 3.81.522 6.658 1.566 8.544 1.044 1.887 2.748 2.83 5.11 2.83.971 0 1.882-.114 2.734-.343.852-.229 1.625-.55 2.321-.962s1.305-.897 1.827-1.456.948-1.158 1.278-1.8c.458.274.796.646 1.017 1.112.22.468.33.958.33 1.471 0 .714-.211 1.438-.632 2.17-.422.733-1.077 1.397-1.965 1.992-.888.596-2.019 1.081-3.393 1.456-1.374.378-3.013.566-4.918.566z"/><g fill="#2E8ACA"><path d="M71.617 134.452c-.714 0-1.314.151-1.799.454-.486.302-.875.724-1.168 1.264s-.499 1.182-.618 1.923a15.403 15.403 0 0 0-.178 2.432c-2.528 0-4.428-.284-5.701-.852s-1.909-1.539-1.909-2.912c0-1.026.306-1.905.92-2.638.613-.732 1.446-1.328 2.5-1.786 1.053-.457 2.28-.792 3.682-1.003a30.327 30.327 0 0 1 4.492-.315c1.979 0 3.705.169 5.179.508 1.474.339 2.702.884 3.682 1.635.979.751 1.717 1.735 2.211 2.953.495 1.219.742 2.707.742 4.465v14.342c0 .77.06 1.411.179 1.923.119.514.307.921.563 1.223.256.303.604.518 1.044.646.439.129.971.192 1.593.192h.22v2.995H76.783l-1.182-3.874h-.495a31.399 31.399 0 0 1-1.758 1.965 8.53 8.53 0 0 1-1.758 1.387 7.203 7.203 0 0 1-2.102.811c-.779.174-1.699.262-2.761.262-1.246 0-2.404-.184-3.476-.55a7.537 7.537 0 0 1-2.802-1.689c-.797-.76-1.425-1.713-1.882-2.857-.458-1.145-.687-2.495-.687-4.053 0-3.059 1.048-5.32 3.146-6.786 2.097-1.465 5.252-2.262 9.465-2.391l4.616-.164v-3.104c0-.935-.037-1.795-.11-2.583-.073-.787-.229-1.465-.467-2.033-.238-.567-.591-1.007-1.058-1.318-.467-.316-1.085-.472-1.855-.472zm-5 19.068c0 1.612.256 2.821.769 3.627s1.319 1.209 2.418 1.209c.806 0 1.534-.169 2.184-.509a4.93 4.93 0 0 0 1.676-1.442c.467-.622.824-1.378 1.072-2.267.247-.888.371-1.882.371-2.98v-4.231l-2.527.165c-1.118.055-2.061.233-2.83.536-.769.302-1.383.719-1.841 1.25-.458.531-.788 1.181-.989 1.95-.202.769-.303 1.666-.303 2.692zM114.494 154.976c0 .861.128 1.548.385 2.061.256.514.6.907 1.03 1.182.43.274.925.458 1.483.55s1.149.137 1.772.137h.22v2.995h-10.907l-1.566-4.396h-.522a11.044 11.044 0 0 1-1.442 2.061 8.283 8.283 0 0 1-1.868 1.552 8.752 8.752 0 0 1-2.376.989c-.879.229-1.868.344-2.967.344-1.832 0-3.462-.308-4.891-.921s-2.633-1.557-3.613-2.83c-.98-1.272-1.722-2.889-2.226-4.849s-.755-4.286-.755-6.979c0-2.711.251-5.06.755-7.047s1.241-3.627 2.212-4.918c.971-1.292 2.161-2.253 3.572-2.885 1.41-.633 3.022-.948 4.835-.948 1.062 0 2.02.114 2.871.344.852.229 1.621.54 2.308.934.687.395 1.296.865 1.827 1.415s.989 1.154 1.374 1.813h.385a274.105 274.105 0 0 0-.22-2.939 59.313 59.313 0 0 0-.069-1.182c-.027-.403-.055-.783-.082-1.141a21.014 21.014 0 0 1-.069-1.607v-3.104c0-.769-.124-1.387-.371-1.854a2.58 2.58 0 0 0-.989-1.058 3.895 3.895 0 0 0-1.442-.467c-.55-.073-1.136-.11-1.758-.11h-.44v-2.967h13.545v35.825zm-14.341 3.269c1.117 0 2.047-.233 2.789-.7.742-.467 1.336-1.177 1.786-2.13.449-.952.765-2.146.948-3.585.183-1.438.275-3.127.275-5.069 0-1.85-.092-3.493-.275-4.932-.183-1.438-.499-2.646-.948-3.626-.449-.979-1.044-1.722-1.786-2.226s-1.672-.756-2.789-.756c-.934 0-1.735.252-2.404.756-.669.504-1.209 1.25-1.621 2.239s-.714 2.202-.907 3.64c-.192 1.438-.288 3.091-.288 4.96 0 3.828.398 6.689 1.195 8.585.797 1.897 2.138 2.844 4.025 2.844z"/></g><path fill="#2E8ACA" d="M131.55 162.449c-2.381 0-4.483-.349-6.306-1.044-1.823-.696-3.348-1.704-4.574-3.022-1.228-1.319-2.152-2.936-2.775-4.85-.623-1.913-.934-4.098-.934-6.553 0-2.637.311-4.954.934-6.95.623-1.997 1.529-3.663 2.72-5.001 1.19-1.337 2.651-2.34 4.382-3.008 1.731-.669 3.704-1.003 5.921-1.003 2.033 0 3.864.288 5.495.865 1.63.577 3.013 1.434 4.148 2.568 1.136 1.137 2.006 2.547 2.61 4.231.604 1.686.907 3.646.907 5.88v2.885h-18.436c.055 1.887.261 3.508.618 4.862.357 1.356.852 2.473 1.484 3.353.632.879 1.401 1.529 2.308 1.95.907.422 1.946.632 3.118.632.971 0 1.869-.114 2.693-.343.824-.229 1.57-.55 2.239-.962s1.254-.897 1.759-1.456a8.485 8.485 0 0 0 1.25-1.8c1.007.55 1.511 1.466 1.511 2.747 0 .807-.22 1.571-.659 2.295s-1.117 1.359-2.033 1.909-2.065.989-3.448 1.318c-1.384.332-3.028.497-4.932.497zm-.522-27.777c-1.576 0-2.826.779-3.75 2.336-.925 1.557-1.433 3.837-1.525 6.841h9.726c0-1.429-.083-2.71-.247-3.847-.165-1.135-.426-2.097-.783-2.885-.357-.787-.815-1.392-1.374-1.812-.56-.422-1.242-.633-2.047-.633z"/><path fill="#2E8ACA" d="M165.512 161.899v-18.518c0-1.209-.078-2.285-.233-3.229-.156-.943-.412-1.735-.769-2.376-.357-.642-.824-1.131-1.401-1.471-.577-.338-1.277-.508-2.102-.508-.934 0-1.713.238-2.335.714-.623.477-1.122 1.113-1.498 1.91s-.646 1.722-.811 2.774a21.39 21.39 0 0 0-.247 3.311v10.743c0 .787.096 1.419.289 1.896s.462.848.811 1.112c.348.266.773.439 1.277.522.503.082 1.067.123 1.69.123h.165v2.995h-17.281v-2.995h.11c.641 0 1.227-.041 1.758-.123a3.27 3.27 0 0 0 1.388-.536c.394-.274.7-.668.92-1.182.22-.512.33-1.19.33-2.032v-16.814c0-.787-.096-1.42-.289-1.896-.192-.477-.467-.848-.824-1.113s-.783-.439-1.277-.521a10.205 10.205 0 0 0-1.676-.124h-.165v-2.83h11.814l.742 4.012h.275c.567-1.062 1.167-1.905 1.799-2.528.632-.622 1.305-1.099 2.02-1.429a7.415 7.415 0 0 1 2.267-.632 22.172 22.172 0 0 1 2.514-.137c2.07 0 3.837.37 5.303 1.112 1.465.742 2.537 1.946 3.214 3.613h.495c.567-1.062 1.186-1.905 1.854-2.528a7.573 7.573 0 0 1 2.143-1.429 8.268 8.268 0 0 1 2.39-.632c.833-.091 1.69-.137 2.569-.137 1.447 0 2.748.211 3.901.632s2.129 1.071 2.926 1.95c.796.88 1.405 2.002 1.827 3.366s.632 2.999.632 4.904v13.05c0 .879.078 1.58.233 2.102.155.522.389.921.701 1.195.311.274.705.458 1.181.55a8.769 8.769 0 0 0 1.648.137h.165v2.995h-12.501v-18.518c0-2.418-.334-4.286-1.003-5.604-.668-1.319-1.827-1.979-3.475-1.979-.879 0-1.631.216-2.253.646-.623.431-1.131 1.013-1.525 1.745-.394.732-.683 1.589-.866 2.568-.183.98-.274 2.011-.274 3.091v11.072c0 .879.078 1.58.233 2.102.155.522.389.921.701 1.195.311.274.705.458 1.181.55a8.941 8.941 0 0 0 1.676.137h.165v2.995h-12.502z"/><path fill="#2E8ACA" d="M224.369 131.732v2.995c-.568 0-1.067.064-1.497.192-.431.128-.82.353-1.168.673-.348.32-.668.742-.961 1.264-.293.522-.586 1.177-.879 1.965a440.636 440.636 0 0 1-2.061 5.714 2062.622 2062.622 0 0 1-4.327 11.663 595.232 595.232 0 0 0-2.102 5.701 95.857 95.857 0 0 1-1.868 4.78c-.586 1.374-1.205 2.564-1.855 3.572-.65 1.007-1.369 1.841-2.157 2.5s-1.703 1.186-2.747 1.58c-1.044.394-2.258.673-3.641.838-1.383.164-3 .247-4.849.247h-.961v-3.27c1.959 0 3.626-.238 5-.715s2.537-1.153 3.489-2.032a10.906 10.906 0 0 0 2.349-3.16 26.66 26.66 0 0 0 1.607-4.066l-10.138-24.754c-.22-.531-.467-.952-.742-1.264s-.568-.55-.879-.715-.65-.27-1.016-.315a9.522 9.522 0 0 0-1.182-.069v-3.324h16.045v2.995c-1.099 0-1.964.142-2.596.426s-.948.838-.948 1.662c0 .312.064.683.192 1.112.128.431.247.783.357 1.058.33.788.673 1.645 1.03 2.569.357.925.705 1.851 1.044 2.774.339.926.664 1.818.976 2.68l.824 2.28c.274.714.503 1.359.687 1.937s.334 1.099.454 1.566c.119.467.215.897.289 1.291.073.394.128.783.165 1.168.037-.385.11-.811.22-1.278.11-.467.229-.915.357-1.346.128-.431.256-.814.385-1.154.128-.339.22-.581.274-.728l3.709-11.018c.073-.183.142-.398.206-.646s.124-.499.179-.756c.055-.256.096-.503.124-.741.028-.238.042-.439.042-.604 0-.861-.357-1.452-1.072-1.772s-1.722-.48-3.022-.48v-2.995h12.664z"/><path fill="#667C84" d="M249.559 162.219v-18.518c0-1.209-.078-2.285-.233-3.229-.156-.943-.412-1.735-.77-2.376-.357-.642-.824-1.131-1.401-1.471-.577-.338-1.277-.508-2.102-.508-.935 0-1.713.238-2.336.714-.622.477-1.122 1.113-1.497 1.91s-.646 1.722-.811 2.774a21.39 21.39 0 0 0-.247 3.311v10.743c0 .787.096 1.419.288 1.896s.463.848.811 1.112c.348.266.773.439 1.278.522.503.082 1.066.123 1.689.123h.165v2.995h-17.282v-2.995h.11c.641 0 1.227-.041 1.759-.123.53-.083.993-.261 1.387-.536.394-.274.701-.668.921-1.182.22-.512.329-1.19.329-2.032v-16.814c0-.787-.096-1.42-.288-1.896-.192-.477-.467-.848-.824-1.113s-.783-.439-1.277-.521a10.205 10.205 0 0 0-1.676-.124h-.165v-2.83H239.2l.742 4.012h.274c.567-1.062 1.168-1.905 1.8-2.528.632-.622 1.305-1.099 2.02-1.429a7.415 7.415 0 0 1 2.267-.632 22.172 22.172 0 0 1 2.514-.137c2.069 0 3.837.37 5.303 1.112 1.465.742 2.536 1.946 3.215 3.613h.494c.567-1.062 1.186-1.905 1.854-2.528a7.573 7.573 0 0 1 2.143-1.429 8.274 8.274 0 0 1 2.391-.632 23.641 23.641 0 0 1 2.569-.137c1.446 0 2.747.211 3.901.632a7.232 7.232 0 0 1 2.926 1.95c.797.88 1.405 2.002 1.827 3.366.421 1.364.632 2.999.632 4.904v13.05c0 .879.077 1.58.233 2.102.155.522.389.921.7 1.195s.705.458 1.182.55 1.025.137 1.648.137H280v2.995h-12.5v-18.518c0-2.418-.334-4.286-1.003-5.604-.669-1.319-1.827-1.979-3.476-1.979-.879 0-1.63.216-2.253.646-.623.431-1.131 1.013-1.524 1.745-.395.732-.683 1.589-.865 2.568-.184.98-.275 2.011-.275 3.091v11.072c0 .879.078 1.58.233 2.102.156.522.39.921.701 1.195s.705.458 1.182.55a8.934 8.934 0 0 0 1.676.137h.165v2.995h-12.502zM293.057 162.769c-2.382 0-4.483-.349-6.306-1.044-1.822-.696-3.348-1.704-4.574-3.022-1.228-1.319-2.152-2.936-2.775-4.85-.622-1.913-.934-4.098-.934-6.553 0-2.637.312-4.954.934-6.95.623-1.997 1.529-3.663 2.721-5.001 1.19-1.337 2.651-2.34 4.382-3.008 1.73-.669 3.704-1.003 5.921-1.003 2.033 0 3.864.288 5.495.865 1.63.577 3.013 1.434 4.148 2.568 1.135 1.137 2.005 2.547 2.609 4.231.604 1.686.907 3.646.907 5.88v2.885H287.15c.055 1.887.261 3.508.618 4.862.357 1.356.852 2.473 1.483 3.353.632.879 1.401 1.529 2.309 1.95.906.422 1.945.632 3.118.632.971 0 1.868-.114 2.692-.343a8.67 8.67 0 0 0 2.239-.962c.668-.412 1.254-.897 1.758-1.456s.921-1.158 1.25-1.8c1.008.55 1.512 1.466 1.512 2.747 0 .807-.22 1.571-.659 2.295-.44.724-1.118 1.359-2.033 1.909-.916.55-2.065.989-3.448 1.318-1.384.332-3.027.497-4.932.497zm-.522-27.778c-1.575 0-2.825.779-3.75 2.336s-1.434 3.837-1.524 6.841h9.726c0-1.429-.082-2.71-.247-3.847-.165-1.135-.426-2.097-.783-2.885-.357-.787-.815-1.392-1.374-1.812-.56-.422-1.242-.633-2.048-.633zM321.798 162.769c-2.382 0-4.483-.349-6.306-1.044-1.822-.696-3.348-1.704-4.574-3.022-1.228-1.319-2.152-2.936-2.775-4.85-.622-1.913-.934-4.098-.934-6.553 0-2.637.312-4.954.934-6.95.623-1.997 1.529-3.663 2.721-5.001 1.19-1.337 2.651-2.34 4.382-3.008 1.73-.669 3.704-1.003 5.921-1.003 2.033 0 3.864.288 5.495.865 1.63.577 3.013 1.434 4.148 2.568 1.135 1.137 2.005 2.547 2.609 4.231.604 1.686.907 3.646.907 5.88v2.885H315.89c.055 1.887.261 3.508.618 4.862.357 1.356.852 2.473 1.483 3.353.632.879 1.401 1.529 2.309 1.95.906.422 1.945.632 3.118.632.971 0 1.868-.114 2.692-.343a8.67 8.67 0 0 0 2.239-.962c.668-.412 1.254-.897 1.758-1.456s.921-1.158 1.25-1.8c1.008.55 1.512 1.466 1.512 2.747 0 .807-.22 1.571-.659 2.295-.44.724-1.118 1.359-2.033 1.909-.916.55-2.065.989-3.448 1.318-1.384.332-3.027.497-4.931.497zm-.523-27.778c-1.575 0-2.825.779-3.75 2.336s-1.434 3.837-1.524 6.841h9.726c0-1.429-.082-2.71-.247-3.847-.165-1.135-.426-2.097-.783-2.885-.357-.787-.815-1.392-1.374-1.812-.56-.422-1.242-.633-2.048-.633zM349.853 158.235c.732 0 1.433-.051 2.102-.151s1.296-.225 1.882-.371v3.654a9.199 9.199 0 0 1-1.194.467c-.505.165-1.091.316-1.759.453-.669.138-1.425.252-2.267.344-.843.092-1.759.138-2.747.138-1.265 0-2.409-.151-3.435-.454-1.026-.302-1.896-.806-2.61-1.511-.714-.705-1.264-1.621-1.648-2.747-.385-1.127-.577-2.514-.577-4.163v-17.995h-4.23v-2.885c1.209 0 2.289-.238 3.242-.715.952-.476 1.712-1.025 2.28-1.648 1.153-1.209 2.015-3.067 2.582-5.577h4.671v6.979h7.198v3.847h-7.198v17.419c0 1.703.288 2.949.865 3.736.577.787 1.525 1.18 2.843 1.18zM378.757 162.219l-1.236-3.983h-.274c-.568.971-1.182 1.754-1.841 2.349a7.58 7.58 0 0 1-2.115 1.374 9.114 9.114 0 0 1-2.377.646c-.834.109-1.689.165-2.568.165-2.931 0-5.18-.907-6.745-2.721-1.566-1.812-2.35-4.615-2.35-8.406V139.03c0-.824-.073-1.492-.22-2.006-.146-.512-.375-.915-.687-1.209-.312-.292-.71-.494-1.195-.604-.485-.11-1.067-.165-1.744-.165h-.11v-2.995h12.501v18.023c0 1.209.068 2.299.206 3.27s.371 1.8.7 2.486c.33.687.77 1.218 1.319 1.594.549.375 1.236.562 2.061.562.897 0 1.671-.196 2.321-.59.65-.395 1.182-.962 1.594-1.704.412-.741.714-1.639.906-2.692.192-1.053.289-2.239.289-3.558v-10.798c0-.824-.11-1.474-.33-1.95s-.513-.838-.879-1.086a2.968 2.968 0 0 0-1.291-.467 12.403 12.403 0 0 0-1.566-.096h-.165v-2.995h12.775v23.628c0 .824.097 1.47.289 1.938.192.467.453.819.782 1.058.33.238.724.389 1.182.453s.962.096 1.512.096h.467v2.995h-11.211z"/><g fill="#667C84"><path d="M388.268 172.741c.421 0 .865-.041 1.332-.123a3.443 3.443 0 0 0 1.292-.509c.394-.257.723-.623.988-1.099.266-.477.398-1.117.398-1.924v-30.111c0-.861-.096-1.548-.288-2.061s-.458-.907-.797-1.182-.742-.458-1.209-.55a7.822 7.822 0 0 0-1.497-.137h-.385v-2.995h11.018l1.017 4.396h.247c.402-.732.874-1.401 1.415-2.006.54-.604 1.163-1.127 1.868-1.566s1.497-.778 2.376-1.017c.88-.237 1.859-.357 2.94-.357 1.868 0 3.521.308 4.959.921 1.438.614 2.642 1.566 3.612 2.857s1.708 2.926 2.212 4.904c.504 1.978.756 4.332.756 7.061 0 2.711-.247 5.051-.742 7.02-.494 1.97-1.223 3.595-2.184 4.877-.962 1.282-2.144 2.23-3.545 2.844-1.4.613-3.018.92-4.849.92-2.144 0-3.884-.407-5.221-1.223a9.268 9.268 0 0 1-3.214-3.283h-.385c.073.861.146 1.704.22 2.528.055.696.105 1.438.151 2.226.045.787.068 1.474.068 2.061v3.873c0 .807.133 1.447.398 1.924.266.476.595.842.989 1.099s.824.426 1.291.509c.467.082.902.123 1.305.123h1.236v2.995h-18.435v-2.995h.663zm18.298-14.011c1.886 0 3.237-.948 4.053-2.844.814-1.896 1.223-4.757 1.223-8.586 0-3.736-.408-6.603-1.223-8.599-.815-1.997-2.148-2.995-3.998-2.995-1.117 0-2.052.252-2.802.756-.752.504-1.347 1.245-1.786 2.225-.439.98-.751 2.189-.935 3.627-.183 1.438-.274 3.082-.274 4.932 0 1.941.092 3.632.274 5.069.184 1.438.495 2.633.935 3.585.439.953 1.025 1.662 1.758 2.13.732.466 1.658.7 2.775.7zM433.23 162.769c-2.033 0-3.769-.165-5.206-.495-1.438-.329-2.61-.787-3.517-1.373s-1.566-1.282-1.979-2.089a5.65 5.65 0 0 1-.618-2.609c0-.916.179-1.653.536-2.212s.806-.993 1.346-1.305 1.113-.518 1.718-.618 1.153-.151 1.648-.151c0 1.172.146 2.226.439 3.159.293.935.705 1.727 1.236 2.377s1.168 1.149 1.909 1.497c.742.349 1.57.522 2.486.522.971 0 1.809-.101 2.514-.303.705-.201 1.282-.48 1.731-.838.448-.357.783-.77 1.003-1.236s.329-.957.329-1.47c0-.622-.114-1.177-.343-1.662-.229-.485-.609-.943-1.141-1.374-.531-.43-1.241-.852-2.129-1.264-.889-.412-1.992-.847-3.311-1.305-1.521-.531-2.862-1.095-4.025-1.69-1.163-.595-2.143-1.272-2.939-2.032-.797-.761-1.401-1.631-1.813-2.61s-.618-2.102-.618-3.366c0-1.501.288-2.811.865-3.929a7.627 7.627 0 0 1 2.459-2.788c1.062-.742 2.336-1.296 3.819-1.662s3.132-.55 4.945-.55c1.776 0 3.287.151 4.533.453 1.245.303 2.262.701 3.05 1.195.787.494 1.364 1.054 1.73 1.676.366.623.55 1.255.55 1.896 0 1.265-.444 2.226-1.333 2.885-.889.66-2.358.989-4.409.989 0-1.868-.417-3.319-1.25-4.354-.834-1.034-2.065-1.553-3.695-1.553-.604 0-1.187.074-1.745.221s-1.044.366-1.456.659-.741.655-.989 1.085c-.247.431-.37.938-.37 1.524 0 .604.114 1.146.343 1.621.229.477.632.93 1.209 1.36s1.36.865 2.35 1.305c.988.439 2.253.926 3.791 1.456 1.245.44 2.395.939 3.448 1.498s1.96 1.199 2.72 1.923 1.351 1.548 1.772 2.473c.421.925.632 1.983.632 3.174 0 1.557-.271 2.949-.811 4.176-.541 1.228-1.333 2.262-2.377 3.104s-2.326 1.488-3.846 1.937c-1.518.448-3.249.673-5.191.673z"/></g><path fill="#849A3B" d="M231.274 30.877h46.455v46.455h-46.455z"/><path fill="#DC332C" d="M281.008 30.877h46.455v46.455h-46.455z"/><path fill="#2E8ACA" d="M231.274 80.886h46.455v46.455h-46.455z"/><path fill="#6E71B5" d="M281.008 80.886h46.455v46.455h-46.455z"/><circle fill="#FFF" cx="279.369" cy="79.11" r="41.138"/><path fill="#CB4D27" d="M135.514 128.135h-16.288v-2.596h.143c.555 0 1.063-.039 1.524-.119.46-.079.858-.241 1.191-.488.334-.245.592-.599.774-1.06.182-.46.274-1.071.274-1.833v-14.145c0-.714-.083-1.289-.25-1.727-.167-.436-.405-.773-.714-1.012a2.452 2.452 0 0 0-1.107-.464 8.945 8.945 0 0 0-1.452-.107h-.143v-2.596h9.858l.976 3.81h.239c.317-.73.667-1.369 1.048-1.917a5.334 5.334 0 0 1 1.369-1.369c.532-.365 1.158-.639 1.881-.822.722-.182 1.584-.274 2.584-.274 1.92 0 3.334.337 4.238 1.012.905.675 1.357 1.655 1.357 2.941 0 1.493-.54 2.651-1.619 3.477-1.08.826-2.604 1.238-4.572 1.238 0-.667-.036-1.254-.107-1.763-.072-.507-.199-.928-.381-1.262a1.902 1.902 0 0 0-.738-.762c-.31-.174-.695-.261-1.155-.261-.572 0-1.064.143-1.476.429a3.78 3.78 0 0 0-1.048 1.107c-.286.452-.52.964-.702 1.536a14.109 14.109 0 0 0-.631 3.382c-.032.524-.048.976-.048 1.357v8.429c0 .715.087 1.29.262 1.727.174.437.412.766.714.988s.663.37 1.084.441c.42.071.869.106 1.346.106h1.572v2.597zM167.45 114.967c0 4.588-1.076 8.009-3.226 10.263-2.151 2.254-5.314 3.381-9.489 3.381-1.953 0-3.707-.282-5.263-.845s-2.877-1.409-3.965-2.536-1.921-2.549-2.5-4.263c-.58-1.714-.869-3.714-.869-6.001 0-4.588 1.076-8.001 3.227-10.24 2.151-2.238 5.322-3.357 9.513-3.357 1.953 0 3.703.277 5.251.833 1.547.556 2.865 1.397 3.952 2.524 1.088 1.128 1.921 2.545 2.501 4.251.578 1.708.868 3.704.868 5.99zm-17.74 0c0 1.73.091 3.255.274 4.572.182 1.318.476 2.421.881 3.311s.933 1.559 1.584 2.012c.651.452 1.444.678 2.381.678.936 0 1.727-.226 2.369-.678.643-.452 1.167-1.122 1.572-2.012s.694-1.993.869-3.311c.174-1.317.262-2.841.262-4.572 0-1.747-.091-3.274-.274-4.584-.182-1.309-.476-2.401-.881-3.274-.405-.872-.933-1.527-1.584-1.964-.651-.436-1.445-.655-2.381-.655-.937 0-1.73.219-2.381.655-.651.437-1.175 1.092-1.572 1.964-.397.873-.683 1.965-.857 3.274-.175 1.31-.262 2.838-.262 4.584z"/><g fill="#CB4D27"><path d="M186.456 128.135l-1.071-3.453h-.238c-.492.842-1.024 1.52-1.595 2.036s-1.183.913-1.834 1.191a7.846 7.846 0 0 1-2.06.56 17.06 17.06 0 0 1-2.226.143c-2.54 0-4.488-.786-5.846-2.358-1.357-1.572-2.036-4-2.036-7.286v-10.93c0-.715-.064-1.294-.191-1.739-.127-.444-.326-.793-.595-1.047-.27-.254-.616-.429-1.036-.525a6.95 6.95 0 0 0-1.512-.143h-.095v-2.596h10.835v15.622c0 1.047.059 1.992.179 2.834.119.841.321 1.559.607 2.155.286.595.667 1.056 1.143 1.381.477.326 1.072.488 1.786.488.778 0 1.449-.171 2.012-.512.563-.341 1.024-.833 1.381-1.477.357-.642.619-1.421.786-2.334.167-.912.25-1.94.25-3.083v-9.358c0-.715-.095-1.278-.286-1.69-.191-.413-.445-.727-.762-.941a2.54 2.54 0 0 0-1.119-.405 10.485 10.485 0 0 0-1.357-.084h-.143v-2.596h11.073v20.479c0 .715.083 1.273.25 1.679.167.405.393.71.678.916a2.25 2.25 0 0 0 1.024.393c.397.056.833.083 1.31.083h.405v2.596h-9.717zM217.671 106.038c0-.587-.226-.977-.678-1.167-.452-.191-1.06-.286-1.822-.286h-.143v-2.596h11.264v2.596h-.429c-.477 0-.901.044-1.274.131a3.766 3.766 0 0 0-1.119.476c-.373.23-.758.547-1.155.952-.397.405-.858.926-1.381 1.56l-5.025 6.143 7.168 9.12c.746.937 1.432 1.599 2.061 1.989.626.389 1.241.582 1.844.582h.643v2.596h-15.526v-2.596h.262c1.952 0 2.929-.531 2.929-1.594 0-.191-.024-.381-.071-.572a3.419 3.419 0 0 0-.262-.667 6.727 6.727 0 0 0-.56-.892 23.827 23.827 0 0 0-.964-1.227l-2.786-3.381-3.405 4.238a6.517 6.517 0 0 0-.738 1.214 2.928 2.928 0 0 0-.286 1.238c0 .541.23.949.69 1.227s1.239.416 2.334.416h.143v2.596h-12.382v-2.596h.429c.587 0 1.103-.051 1.548-.154a4.253 4.253 0 0 0 1.25-.512 6.505 6.505 0 0 0 1.179-.953c.397-.396.841-.896 1.334-1.499l6.143-7.406-6.143-7.858c-.683-.857-1.366-1.499-2.048-1.928-.683-.429-1.397-.643-2.143-.643h-.643v-2.596h15.335v2.596h-.167c-.556 0-1.012.036-1.369.107-.357.071-.639.17-.845.297a1.065 1.065 0 0 0-.429.452 1.3 1.3 0 0 0-.119.548c0 .349.087.686.262 1.012.174.325.46.734.857 1.226l2.715 3.333 2.31-2.786c.381-.491.679-.96.893-1.404a3.07 3.07 0 0 0 .319-1.332z"/></g><circle fill="#D43783" cx="263.973" cy="89.252" r="20.077"/><circle fill="#B48A2E" cx="294.766" cy="89.252" r="20.077"/><circle fill="#2E8ACA" cx="279.369" cy="68.529" r="20.077"/></svg>